<svg id="visual" viewBox="0 0 900 600" width="900" height="600" xmlns="http://www.w3.org/2000/svg" xmlns:xlink="http://www.w3.org/1999/xlink" version="1.1"><rect x="0" y="0" width="900" height="600" fill="#001220"></rect><defs><linearGradient id="grad1_0" x1="33.3%" y1="0%" x2="100%" y2="100%"><stop offset="20%" stop-color="#001220" stop-opacity="1"></stop><stop offset="80%" stop-color="#001220" stop-opacity="1"></stop></linearGradient></defs><defs><linearGradient id="grad2_0" x1="0%" y1="0%" x2="66.7%" y2="100%"><stop offset="20%" stop-color="#001220" stop-opacity="1"></stop><stop offset="80%" stop-color="#001220" stop-opacity="1"></stop></linearGradient></defs><g transform="translate(900, 0)"><path d="M0 378.6C-53.1 377.6 -106.2 376.7 -144.9 349.8C-183.6 322.9 -207.9 270 -228.4 228.4C-248.9 186.8 -265.7 156.4 -290.1 120.2C-314.5 84 -346.5 42 -378.6 0L0 0Z" fill="#1fba72"></path></g><g transform="translate(0, 600)"><path d="M0 -378.6C46.4 -370.1 92.8 -361.6 143.5 -346.5C194.3 -331.3 249.4 -309.5 267.7 -267.7C286 -225.8 267.6 -163.9 279.9 -116C292.3 -68 335.4 -34 378.6 0L0 0Z" fill="#1fba72"></path></g></svg>