<svg id="visual" viewBox="0 0 900 600" width="900" height="600" xmlns="http://www.w3.org/2000/svg" xmlns:xlink="http://www.w3.org/1999/xlink" version="1.1"><rect x="0" y="0" width="900" height="600" fill="#140021"></rect><path d="M462 600L453 600L453 514L471 514L471 429L540 429L540 343L482 343L482 257L499 257L499 171L479 171L479 86L431 86L431 0L900 0L900 86L900 86L900 171L900 171L900 257L900 257L900 343L900 343L900 429L900 429L900 514L900 514L900 600L900 600Z" fill="#4facf7"></path><path d="M586 600L580 600L580 514L669 514L669 429L693 429L693 343L528 343L528 257L699 257L699 171L601 171L601 86L648 86L648 0L900 0L900 86L900 86L900 171L900 171L900 257L900 257L900 343L900 343L900 429L900 429L900 514L900 514L900 600L900 600Z" fill="#008cff"></path><path d="M720 600L768 600L768 514L737 514L737 429L687 429L687 343L681 343L681 257L771 257L771 171L765 171L765 86L818 86L818 0L900 0L900 86L900 86L900 171L900 171L900 257L900 257L900 343L900 343L900 429L900 429L900 514L900 514L900 600L900 600Z" fill="#0066ff"></path></svg>